<svg width="327" height="125" viewBox="0 0 327 125" fill="none" xmlns="http://www.w3.org/2000/svg">
<path d="M57.4869 51.6857C54.3599 48.4761 50.9878 27.0047 47.9488 28.3243C44.9097 29.6439 41.0516 38.0098 43.0402 44.5005C45.0289 50.9913 51.9717 57.2338 52.9449 60.8922C53.9181 64.5505 52.94 66.7786 52.3113 67.2192C51.6826 67.6598 39.5041 50.7197 34.8442 51.7252C30.1843 52.7307 29.8812 58.9481 32.5865 64.7104C35.2917 70.4728 48.6623 73.0542 50.5847 75.8456C52.507 78.637 51.907 81.9235 50.8206 81.592C49.7342 81.2604 38.7949 74.5813 34.3926 74.0869C29.9904 73.5925 27.1811 76.0016 32.2886 81.0196C37.396 86.0376 48.0454 86.7434 49.1778 89.0843C50.3103 91.4253 48.9598 91.9623 47.6623 91.6736C46.3648 91.3849 38.0201 88.2244 34.8836 87.7985C31.747 87.3727 33.8202 93.2588 34.9812 94.9781C36.1422 96.6974 41.5857 98.9787 43.3048 99.1845C45.0238 99.3903 47.3277 97.67 48.4249 98.6341C49.5221 99.5983 47.3824 103.049 47.6312 103.86C47.88 104.67 51.5369 105.991 52.3417 105.288C53.1465 104.586 52.5165 101.451 53.8027 100.472C55.0889 99.4938 56.3815 102.411 59.7228 102.163C63.0641 101.914 71.4372 98.4588 72.5841 95.3371C73.731 92.2154 60.0129 94.3647 56.9609 93.3342C54.9016 92.293 54.4929 90.3773 56.1152 89.9232C57.7375 89.4691 77.9946 90.8796 80.613 87.4672C83.2313 84.0548 81.9672 84.3025 79.7033 83.6168C77.4393 82.931 62.4228 84.7913 61.7644 82.0678C61.106 79.3444 82.1883 79.0154 85.7274 74.5139C89.2665 70.0125 91.7743 64.0448 89.3794 62.4773C86.9846 60.9097 72.2939 71.4924 68.3294 69.5541C64.3649 67.6159 68.8519 67.5047 71.4255 65.5468C73.999 63.5889 86.654 57.7611 87.7085 54.6112C88.763 51.4613 90.5429 48.5308 87.3069 47.1295C84.0709 45.7282 71.9113 56.4458 70.4491 54.7398C68.9869 53.0339 77.4115 48.7544 80.2787 42.8944C83.1459 37.0344 81.8116 29.6879 79.8811 29.5259C77.9507 29.3639 78.0421 29.3887 77.516 31.1223C76.9898 32.856 76.1431 38.9075 74.062 41.8514C71.9809 44.7953 71.1614 47.175 70.4302 46.3225C69.6989 45.47 70.7804 41.9074 72.1715 39.2802C73.5627 36.6529 76.9151 31.1504 76.564 29.0459C76.2129 26.9414 76.5325 19.3619 69.0901 19.0994C61.6477 18.8369 60.084 25.6218 59.3774 30.2439C58.6708 34.8659 59.4282 38.8814 59.684 43.5857C59.9399 48.2899 58.8828 53.1187 57.4869 51.6857Z" fill="#5AB286"/>
<path d="M104.504 90L109.04 64.296H116.492L113.864 79.2L111.92 78.048L128.948 64.296H138.272L124.412 75.06C125.084 75.3 125.66 75.6 126.14 75.96C126.62 76.296 127.076 76.728 127.508 77.256C127.94 77.76 128.336 78.372 128.696 79.092L134.996 90H126.32L121.748 81.108C121.292 80.22 120.68 79.776 119.912 79.776C119.168 79.776 118.4 80.076 117.608 80.676L110.408 86.04L113.612 80.892L111.956 90H104.504ZM135.609 90L152.637 64.296H161.385L169.377 90H161.781L155.481 68.184H157.497L143.709 90H135.609ZM144.141 84.852L145.149 79.416H162.933L161.961 84.852H144.141ZM171.758 90L176.33 64.296H183.782L180.254 84.384H197.066L196.058 90H171.758ZM198.969 90L203.541 64.296H229.281L228.237 69.912H209.985L209.193 74.412H226.041L225.141 79.776H208.257L207.465 84.384H225.717L224.709 90H198.969ZM228.43 90L233.002 64.296H240.454L235.918 90H228.43ZM241.192 90L245.728 64.296H263.044C264.748 64.296 266.332 64.548 267.796 65.052C269.284 65.556 270.568 66.3 271.648 67.284C272.752 68.244 273.604 69.432 274.204 70.848C274.804 72.24 275.104 73.848 275.104 75.672C275.104 77.304 274.852 78.84 274.348 80.28C273.868 81.72 273.16 83.04 272.224 84.24C271.312 85.416 270.184 86.436 268.84 87.3C267.52 88.164 266.02 88.836 264.34 89.316C262.684 89.772 260.872 90 258.904 90H241.192ZM249.652 84.384H258.58C259.492 84.384 260.38 84.264 261.244 84.024C262.108 83.784 262.912 83.424 263.656 82.944C264.424 82.464 265.084 81.888 265.636 81.216C266.212 80.544 266.656 79.776 266.968 78.912C267.28 78.048 267.436 77.112 267.436 76.104C267.436 75 267.268 74.064 266.932 73.296C266.596 72.528 266.14 71.892 265.564 71.388C265.012 70.884 264.376 70.512 263.656 70.272C262.936 70.032 262.204 69.912 261.46 69.912H252.172L249.652 84.384ZM292.166 90.504C288.974 90.504 286.214 90 283.886 88.992C281.582 87.984 279.806 86.58 278.558 84.78C277.31 82.956 276.686 80.832 276.686 78.408C276.686 76.824 276.902 75.372 277.334 74.052C277.766 72.732 278.378 71.532 279.17 70.452C279.962 69.348 280.91 68.388 282.014 67.572C283.118 66.732 284.342 66.036 285.686 65.484C287.054 64.908 288.518 64.488 290.078 64.224C291.662 63.936 293.294 63.792 294.974 63.792C298.166 63.792 300.914 64.296 303.218 65.304C305.546 66.288 307.334 67.692 308.582 69.516C309.83 71.34 310.454 73.464 310.454 75.888C310.454 77.472 310.238 78.924 309.806 80.244C309.374 81.564 308.762 82.776 307.97 83.88C307.178 84.96 306.23 85.92 305.126 86.76C304.022 87.576 302.786 88.272 301.418 88.848C300.074 89.4 298.622 89.808 297.062 90.072C295.502 90.36 293.87 90.504 292.166 90.504ZM292.814 84.888C293.822 84.888 294.758 84.792 295.622 84.6C296.51 84.408 297.314 84.132 298.034 83.772C298.778 83.412 299.438 82.98 300.014 82.476C300.614 81.948 301.106 81.372 301.49 80.748C301.898 80.124 302.21 79.44 302.426 78.696C302.642 77.928 302.75 77.136 302.75 76.32C302.75 74.856 302.402 73.62 301.706 72.612C301.034 71.58 300.062 70.788 298.79 70.236C297.542 69.684 296.054 69.408 294.326 69.408C293.342 69.408 292.418 69.504 291.554 69.696C290.69 69.888 289.886 70.164 289.142 70.524C288.422 70.86 287.762 71.28 287.162 71.784C286.586 72.288 286.082 72.864 285.65 73.512C285.242 74.136 284.93 74.82 284.714 75.564C284.498 76.308 284.39 77.112 284.39 77.976C284.39 79.416 284.726 80.652 285.398 81.684C286.094 82.716 287.078 83.508 288.35 84.06C289.622 84.612 291.11 84.888 292.814 84.888Z" fill="#483D3A"/>
</svg>
